<svg xmlns="http://www.w3.org/2000/svg" viewBox="0 0 100 100" width="100" height="100">
  <rect width="100" height="100" rx="20" fill="#f8fafc" />
  <path d="M50,24c-12.15,0-22,9.85-22,22s9.85,22,22,22s22-9.85,22-22S62.15,24,50,24z M50,62c-8.84,0-16-7.16-16-16s7.16-16,16-16s16,7.16,16,16S58.84,62,50,62z" fill="#3b82f6" />
  <path d="M58,40c-1.1,0-2,0.9-2,2s0.9,2,2,2s2-0.9,2-2S59.1,40,58,40z" fill="#3b82f6" />
  <path d="M42,40c-1.1,0-2,0.9-2,2s0.9,2,2,2s2-0.9,2-2S43.1,40,42,40z" fill="#3b82f6" />
  <path d="M50,50c-4.42,0-8,3.58-8,8h4c0-2.21,1.79-4,4-4s4,1.79,4,4h4C58,53.58,54.42,50,50,50z" fill="#3b82f6" />
  <path d="M57,72H43c-1.1,0-2,0.9-2,2s0.9,2,2,2h14c1.1,0,2-0.9,2-2S58.1,72,57,72z" fill="#3b82f6" />
</svg>
